<svg width="500" height="330" viewBox="0 0 500 330" xmlns="http://www.w3.org/2000/svg"> <!-- 主卡片：缩小尺寸 + 加重阴影（opacity从0.06→0.12） --> <rect x="15" y="15" width="470" height="300" rx="18" fill="#ffffff" stroke="#f0f5ff" stroke-width="1" filter="drop-shadow(0 6px 12px rgba(22,93,255,0.12))"/> <!-- 渐变定义（不变） --> <defs> <linearGradient id="circleGradient" x1="0%" y1="0%" x2="100%" y2="100%"> <stop offset="0%" stop-color="#165DFF" stop-opacity="0.9"/><stop offset="100%" stop-color="#4080FF" stop-opacity="0.9"/> </linearGradient> <linearGradient id="itemGradient" x1="0%" y1="0%" x2="100%" y2="0%"> <stop offset="0%" stop-color="#E8F1FF" stop-opacity="0.9"/><stop offset="100%" stop-color="#F0F5FF" stop-opacity="0.9"/> </linearGradient> </defs> <!-- 标题区：同步缩小坐标和字号 --> <g> <g fill="#165DFF" transform="translate(35, 45) scale(0.85)"> <rect x="0" y="0" width="28" height="28" rx="3"/> <rect x="7" y="7" width="6" height="14" rx="1" fill="#ffffff"/> <rect x="15" y="7" width="6" height="10" rx="1" fill="#ffffff"/> </g> <text x="70" y="58" font-size="20" font-weight="600" fill="#165DFF" font-family="Arial,sans-serif">GitHub Stats</text> <text x="70" y="78" font-size="13" fill="#86909C" font-family="Arial,sans-serif">@Lummer-Li</text> </g> <!-- 右上角圆环：位置同步缩小，尺寸不变（保证清晰） --> <g transform="translate(440, 60)"> <circle cx="0" cy="0" r="30" fill="none" stroke="#F0F5FF" stroke-width="8"/> <circle cx="0" cy="0" r="30" fill="none" stroke="url(#circleGradient)" stroke-width="8" stroke-linecap="round" transform="rotate(-90)" stroke-dasharray="188.49555921538757" stroke-dashoffset="188.49555921538757"> <animate attributeName="stroke-dashoffset" from="188.49555921538757" to="161.72918980680254" dur="1.8s" calcMode="ease-out" fill="freeze"/> </circle> <text x="0" y="5" font-size="20" font-weight="700" fill="#165DFF" text-anchor="middle" font-family="Arial,sans-serif">D</text> </g> <!-- 统计项区：同步缩小尺寸、坐标和字号，保持比例 --> <g font-family="Arial,sans-serif"> <!-- Stars --> <rect x="35" y="110" width="190" height="45" rx="10" fill="url(#itemGradient)"/> <path d="M50 138 L53 132 L60 132 L55 127 L57 121 L50 125 L43 121 L45 127 L40 132 L47 132 Z" fill="#165DFF" transform="translate(0, -1)"/> <text x="68" y="138" font-size="13" fill="#4E5969">Total Stars</text> <text x="200" y="138" font-size="16" font-weight="600" fill="#165DFF" text-anchor="end">34</text> <!-- Commits --> <rect x="240" y="110" width="190" height="45" rx="10" fill="url(#itemGradient)"/> <path d="M255 138 L265 138 L265 131 L260 131 L260 126 L255 126 L255 131 L250 131 L250 145 L255 145 Z M260 138 L268 138 L270 141 L265 141 L265 146 L260 146 L260 141 L255 141 L257 138 Z" fill="#165DFF" transform="translate(0, -1)"/> <text x="273" y="138" font-size="13" fill="#4E5969">2025 Commits</text> <text x="405" y="138" font-size="16" font-weight="600" fill="#165DFF" text-anchor="end">108</text> <!-- PRs --> <rect x="35" y="170" width="190" height="45" rx="10" fill="url(#itemGradient)"/> <path d="M50 200 L60 200 L50 210 L53 200 L47 200 Z" fill="#165DFF" transform="translate(0, -1)"/> <rect x="52" y="197" width="7" height="5" fill="#165DFF"/> <text x="68" y="200" font-size="13" fill="#4E5969">Total PRs</text> <text x="200" y="200" font-size="16" font-weight="600" fill="#165DFF" text-anchor="end">0</text> <!-- Issues --> <rect x="240" y="170" width="190" height="45" rx="10" fill="url(#itemGradient)"/> <rect x="255" y="195" width="5" height="9" fill="#165DFF"/> <rect x="257" y="208" width="2" height="3" fill="#165DFF"/> <text x="273" y="200" font-size="13" fill="#4E5969">Total Issues</text> <text x="405" y="200" font-size="16" font-weight="600" fill="#165DFF" text-anchor="end">0</text> <!-- Contributions --> <rect x="35" y="230" width="400" height="45" rx="10" fill="url(#itemGradient)"/> <rect x="50" y="252" width="11" height="7" fill="#165DFF" rx="1"/> <rect x="48" y="248" width="15" height="4" fill="#165DFF" rx="1"/> <text x="68" y="255" font-size="13" fill="#4E5969">Contributed Repos (Last Year)</text> <text x="405" y="255" font-size="16" font-weight="600" fill="#165DFF" text-anchor="end">6</text> </g>
</svg>